<svg xmlns="http://www.w3.org/2000/svg" width="480" height="300" viewBox="0 0 480 300">
  <defs>
    <style>
      .bg { fill: #1a1a2e; }
      .title { fill: #e2e8f0; font-family: -apple-system, BlinkMacSystemFont, 'Segoe UI', Roboto, sans-serif; font-size: 14px; font-weight: 700; }
      .label { fill: #94a3b8; font-family: -apple-system, BlinkMacSystemFont, 'Segoe UI', Roboto, sans-serif; font-size: 10px; }
      .value { fill: #f1f5f9; font-family: ui-monospace, 'Cascadia Code', 'Fira Code', monospace; font-size: 12px; }
      .header { fill: #e2e8f0; font-family: -apple-system, BlinkMacSystemFont, 'Segoe UI', Roboto, sans-serif; font-size: 16px; font-weight: 700; }
      .subtext { fill: #64748b; font-family: -apple-system, BlinkMacSystemFont, 'Segoe UI', Roboto, sans-serif; font-size: 9px; }
    </style>
  </defs>
  <rect class="bg" width="480" height="300"/>
  <!-- Header -->
  <text class="header" x="20" y="30">1. Throughput &amp; Environment</text>
  <!-- Advanced toggle -->
  <rect x="400" y="16" width="36" height="18" rx="8" ry="8" fill="#6366f1"/>
  <circle cx="427" cy="25" r="7" fill="#fff"/>
  <text class="label" x="360" y="29">Advanced</text>
  <!-- Row 1 -->
  <text class="label" x="20" y="60">Datapoints/sec</text>
  <rect x="20" y="65" width="210" height="28" rx="4" ry="4" fill="#0f172a" stroke="#334155"/>
  <text class="value" x="30" y="84">50,000</text>
  <text class="subtext" x="20" y="103">~100k dps/core. Most important sizing input.</text>

  <text class="label" x="250" y="60">Unique metric names</text>
  <rect x="250" y="65" width="210" height="28" rx="4" ry="4" fill="#0f172a" stroke="#334155"/>
  <text class="value" x="260" y="84">1,000</text>
  <text class="subtext" x="250" y="103">Each gets its own cardinality tracker.</text>

  <!-- Row 2 -->
  <text class="label" x="20" y="125">Avg cardinality per metric</text>
  <rect x="20" y="130" width="135" height="28" rx="4" ry="4" fill="#0f172a" stroke="#334155"/>
  <text class="value" x="30" y="149">100</text>
  <text class="subtext" x="20" y="168">Unique label combos per metric.</text>

  <text class="label" x="170" y="125">CPU cores available</text>
  <rect x="170" y="130" width="135" height="28" rx="4" ry="4" fill="#0f172a" stroke="#334155"/>
  <text class="value" x="180" y="149">4</text>
  <text class="subtext" x="170" y="168">Total CPU for metrics-governor.</text>

  <text class="label" x="320" y="125">Target outage buffer (min)</text>
  <rect x="320" y="130" width="140" height="28" rx="4" ry="4" fill="#0f172a" stroke="#334155"/>
  <text class="value" x="330" y="149">10</text>
  <text class="subtext" x="320" y="168">Queue auto-sized to buffer duration.</text>

  <!-- Divider -->
  <line x1="20" y1="185" x2="460" y2="185" stroke="#334155" stroke-width="1"/>
  <text class="title" x="20" y="205">Advanced Tuning</text>

  <!-- Advanced row 1 -->
  <text class="label" x="20" y="225">Cardinality mode</text>
  <rect x="20" y="230" width="100" height="24" rx="4" ry="4" fill="#0f172a" stroke="#334155"/>
  <text class="value" x="30" y="247">bloom</text>

  <text class="label" x="130" y="225">Bloom FPR</text>
  <rect x="130" y="230" width="80" height="24" rx="4" ry="4" fill="#0f172a" stroke="#334155"/>
  <text class="value" x="140" y="247">0.01</text>

  <text class="label" x="220" y="225">Queue type</text>
  <rect x="220" y="230" width="80" height="24" rx="4" ry="4" fill="#0f172a" stroke="#334155"/>
  <text class="value" x="230" y="247">disk</text>

  <text class="label" x="310" y="225">Cores/pod</text>
  <rect x="310" y="230" width="70" height="24" rx="4" ry="4" fill="#0f172a" stroke="#334155"/>
  <text class="value" x="320" y="247">2</text>

  <text class="label" x="390" y="225">Cloud</text>
  <rect x="390" y="230" width="70" height="24" rx="4" ry="4" fill="#0f172a" stroke="#334155"/>
  <text class="value" x="400" y="247">AWS</text>

  <!-- Advanced row 2 -->
  <text class="label" x="20" y="270">Buffer max size</text>
  <rect x="20" y="275" width="100" height="24" rx="4" ry="4" fill="#0f172a" stroke="#334155"/>
  <text class="value" x="30" y="292">5000</text>

  <text class="label" x="130" y="270">Batch size</text>
  <rect x="130" y="275" width="80" height="24" rx="4" ry="4" fill="#0f172a" stroke="#334155"/>
  <text class="value" x="140" y="292">1000</text>

  <text class="label" x="220" y="270">Queue MB</text>
  <rect x="220" y="275" width="80" height="24" rx="4" ry="4" fill="#0f172a" stroke="#334155"/>
  <text class="value" x="230" y="292">100</text>

  <text class="label" x="310" y="270">Max retries</text>
  <rect x="310" y="275" width="70" height="24" rx="4" ry="4" fill="#0f172a" stroke="#334155"/>
  <text class="value" x="320" y="292">3</text>

  <text class="label" x="390" y="270">Retention</text>
  <rect x="390" y="275" width="70" height="24" rx="4" ry="4" fill="#0f172a" stroke="#334155"/>
  <text class="value" x="400" y="292">60s</text>
</svg>
