<svg xmlns="http://www.w3.org/2000/svg" viewBox="0 0 512 512" width="512" height="512">
  <defs>
    <linearGradient id="shieldGrad" x1="0%" y1="0%" x2="100%" y2="100%">
      <stop offset="0%" style="stop-color:#3b82f6"/>
      <stop offset="100%" style="stop-color:#8b5cf6"/>
    </linearGradient>
    <linearGradient id="barGrad1" x1="0%" y1="100%" x2="0%" y2="0%">
      <stop offset="0%" style="stop-color:#22d3ee"/>
      <stop offset="100%" style="stop-color:#06b6d4"/>
    </linearGradient>
    <linearGradient id="barGrad2" x1="0%" y1="100%" x2="0%" y2="0%">
      <stop offset="0%" style="stop-color:#34d399"/>
      <stop offset="100%" style="stop-color:#10b981"/>
    </linearGradient>
    <linearGradient id="barGrad3" x1="0%" y1="100%" x2="0%" y2="0%">
      <stop offset="0%" style="stop-color:#a78bfa"/>
      <stop offset="100%" style="stop-color:#8b5cf6"/>
    </linearGradient>
    <linearGradient id="lineGrad" x1="0%" y1="0%" x2="100%" y2="0%">
      <stop offset="0%" style="stop-color:#fbbf24"/>
      <stop offset="100%" style="stop-color:#f59e0b"/>
    </linearGradient>
  </defs>
  <!-- Shield shape -->
  <path d="M256 28 L460 100 Q468 104 468 112 L468 260 Q468 360 360 432 L264 492 Q256 496 248 492 L152 432 Q44 360 44 260 L44 112 Q44 104 52 100 Z" fill="url(#shieldGrad)" opacity="0.12"/>
  <path d="M256 28 L460 100 Q468 104 468 112 L468 260 Q468 360 360 432 L264 492 Q256 496 248 492 L152 432 Q44 360 44 260 L44 112 Q44 104 52 100 Z" fill="none" stroke="url(#shieldGrad)" stroke-width="10" stroke-linejoin="round"/>
  <!-- Bar chart - 3 bars -->
  <rect x="140" y="280" width="52" height="120" rx="6" fill="url(#barGrad1)"/>
  <rect x="230" y="220" width="52" height="180" rx="6" fill="url(#barGrad2)"/>
  <rect x="320" y="250" width="52" height="150" rx="6" fill="url(#barGrad3)"/>
  <!-- Trend line across bars -->
  <polyline points="166,260 256,180 346,210" fill="none" stroke="url(#lineGrad)" stroke-width="8" stroke-linecap="round" stroke-linejoin="round"/>
  <!-- Trend line dots -->
  <circle cx="166" cy="260" r="10" fill="#fbbf24"/>
  <circle cx="256" cy="180" r="10" fill="#f59e0b"/>
  <circle cx="346" cy="210" r="10" fill="#f59e0b"/>
  <!-- Shield checkmark / governance indicator at top -->
  <circle cx="256" cy="120" r="32" fill="url(#shieldGrad)" opacity="0.2"/>
  <polyline points="240,120 252,132 276,108" fill="none" stroke="url(#shieldGrad)" stroke-width="7" stroke-linecap="round" stroke-linejoin="round"/>
</svg>
